<svg xmlns="http://www.w3.org/2000/svg" viewBox="-1 -1 86 26" preserveAspectRatio="xMidYMid slice"><path fill="none" stroke="black" stroke-width="0.5" d="M0 0 L1 0 L2 0 L2 1 L1 1 L0 1 L0 2 L1 2 L2 2 L2 3 L1 3 L0 3 L0 4 L1 4 L2 4 L3 4 L4 4 L5 4 L5 3 L4 3 L3 3 L3 2 L4 2 L5 2 L5 1 L4 1 L3 1 L3 0 L4 0 L5 0 L6 0 L7 0 L8 0 L8 1 L7 1 L6 1 L6 2 L7 2 L8 2 L8 3 L7 3 L6 3 L6 4 L7 4 L8 4 L9 4 L10 4 L11 4 L11 3 L10 3 L9 3 L9 2 L10 2 L11 2 L11 1 L10 1 L9 1 L9 0 L10 0 L11 0 L12 0 L13 0 L14 0 L14 1 L13 1 L12 1 L12 2 L13 2 L14 2 L14 3 L13 3 L12 3 L12 4 L13 4 L14 4 L14 5 L13 5 L12 5 L12 6 L13 6 L14 6 L14 7 L13 7 L12 7 L12 8 L13 8 L14 8 L14 9 L13 9 L12 9 L11 9 L10 9 L9 9 L9 8 L10 8 L11 8 L11 7 L10 7 L9 7 L9 6 L10 6 L11 6 L11 5 L10 5 L9 5 L8 5 L7 5 L6 5 L6 6 L7 6 L8 6 L8 7 L7 7 L6 7 L6 8 L7 8 L8 8 L8 9 L7 9 L6 9 L5 9 L4 9 L3 9 L3 8 L4 8 L5 8 L5 7 L4 7 L3 7 L3 6 L4 6 L5 6 L5 5 L4 5 L3 5 L2 5 L1 5 L0 5 L0 6 L1 6 L2 6 L2 7 L1 7 L0 7 L0 8 L1 8 L2 8 L2 9 L1 9 L0 9 L0 10 L1 10 L2 10 L2 11 L1 11 L0 11 L0 12 L1 12 L2 12 L2 13 L1 13 L0 13 L0 14 L1 14 L2 14 L3 14 L4 14 L5 14 L5 13 L4 13 L3 13 L3 12 L4 12 L5 12 L5 11 L4 11 L3 11 L3 10 L4 10 L5 10 L6 10 L7 10 L8 10 L8 11 L7 11 L6 11 L6 12 L7 12 L8 12 L8 13 L7 13 L6 13 L6 14 L7 14 L8 14 L9 14 L10 14 L11 14 L11 13 L10 13 L9 13 L9 12 L10 12 L11 12 L11 11 L10 11 L9 11 L9 10 L10 10 L11 10 L12 10 L13 10 L14 10 L14 11 L13 11 L12 11 L12 12 L13 12 L14 12 L14 13 L13 13 L12 13 L12 14 L13 14 L14 14 L14 15 L13 15 L12 15 L12 16 L13 16 L14 16 L14 17 L13 17 L12 17 L12 18 L13 18 L14 18 L14 19 L13 19 L12 19 L11 19 L10 19 L9 19 L9 18 L10 18 L11 18 L11 17 L10 17 L9 17 L9 16 L10 16 L11 16 L11 15 L10 15 L9 15 L8 15 L7 15 L6 15 L6 16 L7 16 L8 16 L8 17 L7 17 L6 17 L6 18 L7 18 L8 18 L8 19 L7 19 L6 19 L5 19 L4 19 L3 19 L3 18 L4 18 L5 18 L5 17 L4 17 L3 17 L3 16 L4 16 L5 16 L5 15 L4 15 L3 15 L2 15 L1 15 L0 15 L0 16 L1 16 L2 16 L2 17 L1 17 L0 17 L0 18 L1 18 L2 18 L2 19 L1 19 L0 19 L0 20 L1 20 L2 20 L2 21 L1 21 L0 21 L0 22 L1 22 L2 22 L2 23 L1 23 L0 23 L0 24 L1 24 L2 24 L3 24 L4 24 L5 24 L5 23 L4 23 L3 23 L3 22 L4 22 L5 22 L5 21 L4 21 L3 21 L3 20 L4 20 L5 20 L6 20 L7 20 L8 20 L8 21 L7 21 L6 21 L6 22 L7 22 L8 22 L8 23 L7 23 L6 23 L6 24 L7 24 L8 24 L9 24 L10 24 L11 24 L11 23 L10 23 L9 23 L9 22 L10 22 L11 22 L11 21 L10 21 L9 21 L9 20 L10 20 L11 20 L12 20 L13 20 L14 20 L14 21 L13 21 L12 21 L12 22 L13 22 L14 22 L14 23 L13 23 L12 23 L12 24 L13 24 L14 24 L15 24 L16 24 L17 24 L17 23 L16 23 L15 23 L15 22 L16 22 L17 22 L17 21 L16 21 L15 21 L15 20 L16 20 L17 20 L18 20 L19 20 L20 20 L20 21 L19 21 L18 21 L18 22 L19 22 L20 22 L20 23 L19 23 L18 23 L18 24 L19 24 L20 24 L21 24 L22 24 L23 24 L23 23 L22 23 L21 23 L21 22 L22 22 L23 22 L23 21 L22 21 L21 21 L21 20 L22 20 L23 20 L24 20 L25 20 L26 20 L26 21 L25 21 L24 21 L24 22 L25 22 L26 22 L26 23 L25 23 L24 23 L24 24 L25 24 L26 24 L27 24 L28 24 L29 24 L29 23 L28 23 L27 23 L27 22 L28 22 L29 22 L29 21 L28 21 L27 21 L27 20 L28 20 L29 20 L29 19 L28 19 L27 19 L27 18 L28 18 L29 18 L29 17 L28 17 L27 17 L27 16 L28 16 L29 16 L29 15 L28 15 L27 15 L26 15 L25 15 L24 15 L24 16 L25 16 L26 16 L26 17 L25 17 L24 17 L24 18 L25 18 L26 18 L26 19 L25 19 L24 19 L23 19 L22 19 L21 19 L21 18 L22 18 L23 18 L23 17 L22 17 L21 17 L21 16 L22 16 L23 16 L23 15 L22 15 L21 15 L20 15 L19 15 L18 15 L18 16 L19 16 L20 16 L20 17 L19 17 L18 17 L18 18 L19 18 L20 18 L20 19 L19 19 L18 19 L17 19 L16 19 L15 19 L15 18 L16 18 L17 18 L17 17 L16 17 L15 17 L15 16 L16 16 L17 16 L17 15 L16 15 L15 15 L15 14 L16 14 L17 14 L17 13 L16 13 L15 13 L15 12 L16 12 L17 12 L17 11 L16 11 L15 11 L15 10 L16 10 L17 10 L18 10 L19 10 L20 10 L20 11 L19 11 L18 11 L18 12 L19 12 L20 12 L20 13 L19 13 L18 13 L18 14 L19 14 L20 14 L21 14 L22 14 L23 14 L23 13 L22 13 L21 13 L21 12 L22 12 L23 12 L23 11 L22 11 L21 11 L21 10 L22 10 L23 10 L24 10 L25 10 L26 10 L26 11 L25 11 L24 11 L24 12 L25 12 L26 12 L26 13 L25 13 L24 13 L24 14 L25 14 L26 14 L27 14 L28 14 L29 14 L29 13 L28 13 L27 13 L27 12 L28 12 L29 12 L29 11 L28 11 L27 11 L27 10 L28 10 L29 10 L29 9 L28 9 L27 9 L27 8 L28 8 L29 8 L29 7 L28 7 L27 7 L27 6 L28 6 L29 6 L29 5 L28 5 L27 5 L26 5 L25 5 L24 5 L24 6 L25 6 L26 6 L26 7 L25 7 L24 7 L24 8 L25 8 L26 8 L26 9 L25 9 L24 9 L23 9 L22 9 L21 9 L21 8 L22 8 L23 8 L23 7 L22 7 L21 7 L21 6 L22 6 L23 6 L23 5 L22 5 L21 5 L20 5 L19 5 L18 5 L18 6 L19 6 L20 6 L20 7 L19 7 L18 7 L18 8 L19 8 L20 8 L20 9 L19 9 L18 9 L17 9 L16 9 L15 9 L15 8 L16 8 L17 8 L17 7 L16 7 L15 7 L15 6 L16 6 L17 6 L17 5 L16 5 L15 5 L15 4 L16 4 L17 4 L17 3 L16 3 L15 3 L15 2 L16 2 L17 2 L17 1 L16 1 L15 1 L15 0 L16 0 L17 0 L18 0 L19 0 L20 0 L20 1 L19 1 L18 1 L18 2 L19 2 L20 2 L20 3 L19 3 L18 3 L18 4 L19 4 L20 4 L21 4 L22 4 L23 4 L23 3 L22 3 L21 3 L21 2 L22 2 L23 2 L23 1 L22 1 L21 1 L21 0 L22 0 L23 0 L24 0 L25 0 L26 0 L26 1 L25 1 L24 1 L24 2 L25 2 L26 2 L26 3 L25 3 L24 3 L24 4 L25 4 L26 4 L27 4 L28 4 L29 4 L29 3 L28 3 L27 3 L27 2 L28 2 L29 2 L29 1 L28 1 L27 1 L27 0 L28 0 L29 0 L30 0 L31 0 L32 0 L32 1 L31 1 L30 1 L30 2 L31 2 L32 2 L32 3 L31 3 L30 3 L30 4 L31 4 L32 4 L33 4 L34 4 L35 4 L35 3 L34 3 L33 3 L33 2 L34 2 L35 2 L35 1 L34 1 L33 1 L33 0 L34 0 L35 0 L36 0 L37 0 L38 0 L38 1 L37 1 L36 1 L36 2 L37 2 L38 2 L38 3 L37 3 L36 3 L36 4 L37 4 L38 4 L39 4 L40 4 L41 4 L41 3 L40 3 L39 3 L39 2 L40 2 L41 2 L41 1 L40 1 L39 1 L39 0 L40 0 L41 0 L42 0 L43 0 L44 0 L44 1 L43 1 L42 1 L42 2 L43 2 L44 2 L44 3 L43 3 L42 3 L42 4 L43 4 L44 4 L44 5 L43 5 L42 5 L42 6 L43 6 L44 6 L44 7 L43 7 L42 7 L42 8 L43 8 L44 8 L44 9 L43 9 L42 9 L41 9 L40 9 L39 9 L39 8 L40 8 L41 8 L41 7 L40 7 L39 7 L39 6 L40 6 L41 6 L41 5 L40 5 L39 5 L38 5 L37 5 L36 5 L36 6 L37 6 L38 6 L38 7 L37 7 L36 7 L36 8 L37 8 L38 8 L38 9 L37 9 L36 9 L35 9 L34 9 L33 9 L33 8 L34 8 L35 8 L35 7 L34 7 L33 7 L33 6 L34 6 L35 6 L35 5 L34 5 L33 5 L32 5 L31 5 L30 5 L30 6 L31 6 L32 6 L32 7 L31 7 L30 7 L30 8 L31 8 L32 8 L32 9 L31 9 L30 9 L30 10 L31 10 L32 10 L32 11 L31 11 L30 11 L30 12 L31 12 L32 12 L32 13 L31 13 L30 13 L30 14 L31 14 L32 14 L33 14 L34 14 L35 14 L35 13 L34 13 L33 13 L33 12 L34 12 L35 12 L35 11 L34 11 L33 11 L33 10 L34 10 L35 10 L36 10 L37 10 L38 10 L38 11 L37 11 L36 11 L36 12 L37 12 L38 12 L38 13 L37 13 L36 13 L36 14 L37 14 L38 14 L39 14 L40 14 L41 14 L41 13 L40 13 L39 13 L39 12 L40 12 L41 12 L41 11 L40 11 L39 11 L39 10 L40 10 L41 10 L42 10 L43 10 L44 10 L44 11 L43 11 L42 11 L42 12 L43 12 L44 12 L44 13 L43 13 L42 13 L42 14 L43 14 L44 14 L44 15 L43 15 L42 15 L42 16 L43 16 L44 16 L44 17 L43 17 L42 17 L42 18 L43 18 L44 18 L44 19 L43 19 L42 19 L41 19 L40 19 L39 19 L39 18 L40 18 L41 18 L41 17 L40 17 L39 17 L39 16 L40 16 L41 16 L41 15 L40 15 L39 15 L38 15 L37 15 L36 15 L36 16 L37 16 L38 16 L38 17 L37 17 L36 17 L36 18 L37 18 L38 18 L38 19 L37 19 L36 19 L35 19 L34 19 L33 19 L33 18 L34 18 L35 18 L35 17 L34 17 L33 17 L33 16 L34 16 L35 16 L35 15 L34 15 L33 15 L32 15 L31 15 L30 15 L30 16 L31 16 L32 16 L32 17 L31 17 L30 17 L30 18 L31 18 L32 18 L32 19 L31 19 L30 19 L30 20 L31 20 L32 20 L32 21 L31 21 L30 21 L30 22 L31 22 L32 22 L32 23 L31 23 L30 23 L30 24 L31 24 L32 24 L33 24 L34 24 L35 24 L35 23 L34 23 L33 23 L33 22 L34 22 L35 22 L35 21 L34 21 L33 21 L33 20 L34 20 L35 20 L36 20 L37 20 L38 20 L38 21 L37 21 L36 21 L36 22 L37 22 L38 22 L38 23 L37 23 L36 23 L36 24 L37 24 L38 24 L39 24 L40 24 L41 24 L41 23 L40 23 L39 23 L39 22 L40 22 L41 22 L41 21 L40 21 L39 21 L39 20 L40 20 L41 20 L42 20 L43 20 L44 20 L44 21 L43 21 L42 21 L42 22 L43 22 L44 22 L44 23 L43 23 L42 23 L42 24 L43 24 L44 24 L45 24 L46 24 L47 24 L47 23 L46 23 L45 23 L45 22 L46 22 L47 22 L47 21 L46 21 L45 21 L45 20 L46 20 L47 20 L48 20 L49 20 L50 20 L50 21 L49 21 L48 21 L48 22 L49 22 L50 22 L50 23 L49 23 L48 23 L48 24 L49 24 L50 24 L51 24 L52 24 L53 24 L53 23 L52 23 L51 23 L51 22 L52 22 L53 22 L53 21 L52 21 L51 21 L51 20 L52 20 L53 20 L54 20 L55 20 L56 20 L56 21 L55 21 L54 21 L54 22 L55 22 L56 22 L56 23 L55 23 L54 23 L54 24 L55 24 L56 24 L57 24 L58 24 L59 24 L59 23 L58 23 L57 23 L57 22 L58 22 L59 22 L59 21 L58 21 L57 21 L57 20 L58 20 L59 20 L59 19 L58 19 L57 19 L57 18 L58 18 L59 18 L59 17 L58 17 L57 17 L57 16 L58 16 L59 16 L59 15 L58 15 L57 15 L56 15 L55 15 L54 15 L54 16 L55 16 L56 16 L56 17 L55 17 L54 17 L54 18 L55 18 L56 18 L56 19 L55 19 L54 19 L53 19 L52 19 L51 19 L51 18 L52 18 L53 18 L53 17 L52 17 L51 17 L51 16 L52 16 L53 16 L53 15 L52 15 L51 15 L50 15 L49 15 L48 15 L48 16 L49 16 L50 16 L50 17 L49 17 L48 17 L48 18 L49 18 L50 18 L50 19 L49 19 L48 19 L47 19 L46 19 L45 19 L45 18 L46 18 L47 18 L47 17 L46 17 L45 17 L45 16 L46 16 L47 16 L47 15 L46 15 L45 15 L45 14 L46 14 L47 14 L47 13 L46 13 L45 13 L45 12 L46 12 L47 12 L47 11 L46 11 L45 11 L45 10 L46 10 L47 10 L48 10 L49 10 L50 10 L50 11 L49 11 L48 11 L48 12 L49 12 L50 12 L50 13 L49 13 L48 13 L48 14 L49 14 L50 14 L51 14 L52 14 L53 14 L53 13 L52 13 L51 13 L51 12 L52 12 L53 12 L53 11 L52 11 L51 11 L51 10 L52 10 L53 10 L54 10 L55 10 L56 10 L56 11 L55 11 L54 11 L54 12 L55 12 L56 12 L56 13 L55 13 L54 13 L54 14 L55 14 L56 14 L57 14 L58 14 L59 14 L59 13 L58 13 L57 13 L57 12 L58 12 L59 12 L59 11 L58 11 L57 11 L57 10 L58 10 L59 10 L59 9 L58 9 L57 9 L57 8 L58 8 L59 8 L59 7 L58 7 L57 7 L57 6 L58 6 L59 6 L59 5 L58 5 L57 5 L56 5 L55 5 L54 5 L54 6 L55 6 L56 6 L56 7 L55 7 L54 7 L54 8 L55 8 L56 8 L56 9 L55 9 L54 9 L53 9 L52 9 L51 9 L51 8 L52 8 L53 8 L53 7 L52 7 L51 7 L51 6 L52 6 L53 6 L53 5 L52 5 L51 5 L50 5 L49 5 L48 5 L48 6 L49 6 L50 6 L50 7 L49 7 L48 7 L48 8 L49 8 L50 8 L50 9 L49 9 L48 9 L47 9 L46 9 L45 9 L45 8 L46 8 L47 8 L47 7 L46 7 L45 7 L45 6 L46 6 L47 6 L47 5 L46 5 L45 5 L45 4 L46 4 L47 4 L47 3 L46 3 L45 3 L45 2 L46 2 L47 2 L47 1 L46 1 L45 1 L45 0 L46 0 L47 0 L48 0 L49 0 L50 0 L50 1 L49 1 L48 1 L48 2 L49 2 L50 2 L50 3 L49 3 L48 3 L48 4 L49 4 L50 4 L51 4 L52 4 L53 4 L53 3 L52 3 L51 3 L51 2 L52 2 L53 2 L53 1 L52 1 L51 1 L51 0 L52 0 L53 0 L54 0 L55 0 L56 0 L56 1 L55 1 L54 1 L54 2 L55 2 L56 2 L56 3 L55 3 L54 3 L54 4 L55 4 L56 4 L57 4 L58 4 L59 4 L59 3 L58 3 L57 3 L57 2 L58 2 L59 2 L59 1 L58 1 L57 1 L57 0 L58 0 L59 0 L60 0 L61 0 L62 0 L62 1 L61 1 L60 1 L60 2 L61 2 L62 2 L62 3 L61 3 L60 3 L60 4 L61 4 L62 4 L63 4 L64 4 L65 4 L65 3 L64 3 L63 3 L63 2 L64 2 L65 2 L65 1 L64 1 L63 1 L63 0 L64 0 L65 0 L66 0 L67 0 L68 0 L68 1 L67 1 L66 1 L66 2 L67 2 L68 2 L68 3 L67 3 L66 3 L66 4 L67 4 L68 4 L69 4 L70 4 L71 4 L71 3 L70 3 L69 3 L69 2 L70 2 L71 2 L71 1 L70 1 L69 1 L69 0 L70 0 L71 0 L72 0 L73 0 L74 0 L74 1 L73 1 L72 1 L72 2 L73 2 L74 2 L74 3 L73 3 L72 3 L72 4 L73 4 L74 4 L74 5 L73 5 L72 5 L72 6 L73 6 L74 6 L74 7 L73 7 L72 7 L72 8 L73 8 L74 8 L74 9 L73 9 L72 9 L71 9 L70 9 L69 9 L69 8 L70 8 L71 8 L71 7 L70 7 L69 7 L69 6 L70 6 L71 6 L71 5 L70 5 L69 5 L68 5 L67 5 L66 5 L66 6 L67 6 L68 6 L68 7 L67 7 L66 7 L66 8 L67 8 L68 8 L68 9 L67 9 L66 9 L65 9 L64 9 L63 9 L63 8 L64 8 L65 8 L65 7 L64 7 L63 7 L63 6 L64 6 L65 6 L65 5 L64 5 L63 5 L62 5 L61 5 L60 5 L60 6 L61 6 L62 6 L62 7 L61 7 L60 7 L60 8 L61 8 L62 8 L62 9 L61 9 L60 9 L60 10 L61 10 L62 10 L62 11 L61 11 L60 11 L60 12 L61 12 L62 12 L62 13 L61 13 L60 13 L60 14 L61 14 L62 14 L63 14 L64 14 L65 14 L65 13 L64 13 L63 13 L63 12 L64 12 L65 12 L65 11 L64 11 L63 11 L63 10 L64 10 L65 10 L66 10 L67 10 L68 10 L68 11 L67 11 L66 11 L66 12 L67 12 L68 12 L68 13 L67 13 L66 13 L66 14 L67 14 L68 14 L69 14 L70 14 L71 14 L71 13 L70 13 L69 13 L69 12 L70 12 L71 12 L71 11 L70 11 L69 11 L69 10 L70 10 L71 10 L72 10 L73 10 L74 10 L74 11 L73 11 L72 11 L72 12 L73 12 L74 12 L74 13 L73 13 L72 13 L72 14 L73 14 L74 14 L74 15 L73 15 L72 15 L72 16 L73 16 L74 16 L74 17 L73 17 L72 17 L72 18 L73 18 L74 18 L74 19 L73 19 L72 19 L71 19 L70 19 L69 19 L69 18 L70 18 L71 18 L71 17 L70 17 L69 17 L69 16 L70 16 L71 16 L71 15 L70 15 L69 15 L68 15 L67 15 L66 15 L66 16 L67 16 L68 16 L68 17 L67 17 L66 17 L66 18 L67 18 L68 18 L68 19 L67 19 L66 19 L65 19 L64 19 L63 19 L63 18 L64 18 L65 18 L65 17 L64 17 L63 17 L63 16 L64 16 L65 16 L65 15 L64 15 L63 15 L62 15 L61 15 L60 15 L60 16 L61 16 L62 16 L62 17 L61 17 L60 17 L60 18 L61 18 L62 18 L62 19 L61 19 L60 19 L60 20 L61 20 L62 20 L62 21 L61 21 L60 21 L60 22 L61 22 L62 22 L62 23 L61 23 L60 23 L60 24 L61 24 L62 24 L63 24 L64 24 L65 24 L65 23 L64 23 L63 23 L63 22 L64 22 L65 22 L65 21 L64 21 L63 21 L63 20 L64 20 L65 20 L66 20 L67 20 L68 20 L68 21 L67 21 L66 21 L66 22 L67 22 L68 22 L68 23 L67 23 L66 23 L66 24 L67 24 L68 24 L69 24 L70 24 L71 24 L71 23 L70 23 L69 23 L69 22 L70 22 L71 22 L71 21 L70 21 L69 21 L69 20 L70 20 L71 20 L72 20 L73 20 L74 20 L74 21 L73 21 L72 21 L72 22 L73 22 L74 22 L74 23 L73 23 L72 23 L72 24 L73 24 L74 24 L75 24 L76 24 L77 24 L77 23 L76 23 L75 23 L75 22 L76 22 L77 22 L77 21 L76 21 L75 21 L75 20 L76 20 L77 20 L78 20 L79 20 L80 20 L80 21 L79 21 L78 21 L78 22 L79 22 L80 22 L80 23 L79 23 L78 23 L78 24 L79 24 L80 24 L81 24 L82 24 L83 24 L83 23 L82 23 L81 23 L81 22 L82 22 L83 22 L83 21 L82 21 L81 21 L81 20 L82 20 L83 20 L84 20 L85 20 L86 20 L86 21 L85 21 L84 21 L84 22 L85 22 L86 22 L86 23 L85 23 L84 23 L84 24 L85 24 L86 24 L87 24 L88 24 L89 24 L89 23 L88 23 L87 23 L87 22 L88 22 L89 22 L89 21 L88 21 L87 21 L87 20 L88 20 L89 20 L89 19 L88 19 L87 19 L87 18 L88 18 L89 18 L89 17 L88 17 L87 17 L87 16 L88 16 L89 16 L89 15 L88 15 L87 15 L86 15 L85 15 L84 15 L84 16 L85 16 L86 16 L86 17 L85 17 L84 17 L84 18 L85 18 L86 18 L86 19 L85 19 L84 19 L83 19 L82 19 L81 19 L81 18 L82 18 L83 18 L83 17 L82 17 L81 17 L81 16 L82 16 L83 16 L83 15 L82 15 L81 15 L80 15 L79 15 L78 15 L78 16 L79 16 L80 16 L80 17 L79 17 L78 17 L78 18 L79 18 L80 18 L80 19 L79 19 L78 19 L77 19 L76 19 L75 19 L75 18 L76 18 L77 18 L77 17 L76 17 L75 17 L75 16 L76 16 L77 16 L77 15 L76 15 L75 15 L75 14 L76 14 L77 14 L77 13 L76 13 L75 13 L75 12 L76 12 L77 12 L77 11 L76 11 L75 11 L75 10 L76 10 L77 10 L78 10 L79 10 L80 10 L80 11 L79 11 L78 11 L78 12 L79 12 L80 12 L80 13 L79 13 L78 13 L78 14 L79 14 L80 14 L81 14 L82 14 L83 14 L83 13 L82 13 L81 13 L81 12 L82 12 L83 12 L83 11 L82 11 L81 11 L81 10 L82 10 L83 10 L84 10 L85 10 L86 10 L86 11 L85 11 L84 11 L84 12 L85 12 L86 12 L86 13 L85 13 L84 13 L84 14 L85 14 L86 14 L87 14 L88 14 L89 14 L89 13 L88 13 L87 13 L87 12 L88 12 L89 12 L89 11 L88 11 L87 11 L87 10 L88 10 L89 10 L89 9 L88 9 L87 9 L87 8 L88 8 L89 8 L89 7 L88 7 L87 7 L87 6 L88 6 L89 6 L89 5 L88 5 L87 5 L86 5 L85 5 L84 5 L84 6 L85 6 L86 6 L86 7 L85 7 L84 7 L84 8 L85 8 L86 8 L86 9 L85 9 L84 9 L83 9 L82 9 L81 9 L81 8 L82 8 L83 8 L83 7 L82 7 L81 7 L81 6 L82 6 L83 6 L83 5 L82 5 L81 5 L80 5 L79 5 L78 5 L78 6 L79 6 L80 6 L80 7 L79 7 L78 7 L78 8 L79 8 L80 8 L80 9 L79 9 L78 9 L77 9 L76 9 L75 9 L75 8 L76 8 L77 8 L77 7 L76 7 L75 7 L75 6 L76 6 L77 6 L77 5 L76 5 L75 5 L75 4 L76 4 L77 4 L77 3 L76 3 L75 3 L75 2 L76 2 L77 2 L77 1 L76 1 L75 1 L75 0 L76 0 L77 0 L78 0 L79 0 L80 0 L80 1 L79 1 L78 1 L78 2 L79 2 L80 2 L80 3 L79 3 L78 3 L78 4 L79 4 L80 4 L81 4 L82 4 L83 4 L83 3 L82 3 L81 3 L81 2 L82 2 L83 2 L83 1 L82 1 L81 1 L81 0 L82 0 L83 0 L84 0 L85 0 L86 0 L86 1 L85 1 L84 1 L84 2 L85 2 L86 2 L86 3 L85 3 L84 3 L84 4 L85 4 L86 4 L87 4 L88 4 L89 4 L89 3 L88 3 L87 3 L87 2 L88 2 L89 2 L89 1 L88 1 L87 1 L87 0 L88 0 L89 0"/></svg>