<svg width="256" height="257" viewBox="0 0 256 257" fill="none" xmlns="http://www.w3.org/2000/svg">
<path d="M128 10.5C96.7045 10.5 66.6907 22.9321 44.5614 45.0614C22.4321 67.1907 10 97.2045 10 128.5C10 159.796 22.4321 189.809 44.5614 211.939C66.6907 234.068 96.7045 246.5 128 246.5C159.296 246.5 189.309 234.068 211.439 211.939C233.568 189.809 246 159.796 246 128.5C246 97.2045 233.568 67.1907 211.439 45.0614C189.309 22.9321 159.296 10.5 128 10.5ZM128 236.787C113.947 236.787 101.05 227.236 91.0528 211.418C92.4317 210.952 93.7701 210.465 95.1084 209.979C119.728 200.502 142.551 186.897 162.595 169.746C170.262 163.329 177.541 156.463 184.394 149.184C179.325 199.089 156.004 236.787 128 236.787ZM45.325 198.258C45.2033 198.095 45.0614 197.954 44.9194 197.791C38.2681 188.93 52.3007 164.94 61.933 150.745C63.488 166.89 67.3109 182.734 73.2889 197.812C61.4666 201.523 49.989 203.145 45.325 198.319V198.258ZM128 20.2134C142.053 20.2134 154.95 29.7645 164.947 45.5816C163.568 46.048 162.21 46.5347 160.892 47.0214C136.272 56.4975 113.449 70.1034 93.4051 87.2537C85.7122 93.6701 78.4123 100.543 71.5449 107.836C76.6754 57.9717 100.036 20.2134 128 20.2134ZM210.756 58.6815L211.141 59.1276C217.813 68.0095 203.78 91.9989 194.148 106.194C192.563 90.0592 188.713 74.2284 182.711 59.1682C194.533 55.4775 206.011 53.7944 210.756 58.6815ZM89.0858 118.523C101.253 118.057 114.312 117.813 128.061 117.813C148.664 117.813 167.928 118.381 184.313 119.354C178.919 125.945 173.14 132.333 167.036 138.477C154.869 138.923 141.81 139.187 128.061 139.187C107.458 139.187 88.1935 138.619 71.8086 137.625C77.1418 131.055 83.0022 124.667 89.0858 118.523ZM184.638 109.661C167.705 108.627 148.258 108.1 128 108.1C118.266 108.1 108.736 108.222 99.6102 108.465C101.8 106.478 104.024 104.517 106.282 102.584C119.975 91.2055 134.739 81.1816 150.367 72.6533C157.867 68.7621 165.585 65.309 173.484 62.3113C179.501 77.4633 183.259 93.417 184.638 109.661ZM48.9954 135.8C30.8665 133.894 19.7539 131.319 19.7539 128.5C19.7539 125.114 35.7738 122.092 60.7163 120.125C56.6403 125.215 52.5846 130.447 48.9954 135.8ZM26.0402 142.127C31.6927 143.357 37.4054 144.291 43.1552 144.926L42.0399 146.751C37.0514 155.247 32.144 165.285 30.4812 175.526C25.1305 164.522 21.7013 152.685 20.342 140.525C22.2098 141.166 24.1122 141.701 26.0402 142.127ZM71.3624 147.339C88.2949 148.353 107.742 148.9 128 148.9C137.734 148.9 147.264 148.778 156.39 148.535C154.2 150.522 151.969 152.483 149.698 154.416C136.01 165.786 121.253 175.803 105.633 184.326C98.1394 188.236 90.4199 191.696 82.5155 194.689C76.492 179.539 72.7339 163.584 71.3624 147.339ZM207.005 121.2C225.134 123.106 236.246 125.681 236.246 128.5C236.246 131.886 220.226 134.908 195.284 136.875C199.441 131.785 203.375 126.553 207.005 121.2ZM229.96 114.873C224.289 113.633 218.555 112.699 212.784 112.075L213.899 110.249C218.888 101.753 223.795 91.715 225.458 81.4541C230.808 92.4651 234.237 104.309 235.597 116.475C233.749 115.837 231.867 115.302 229.96 114.873ZM191.167 40.6337C185.575 40.6124 180.002 41.2937 174.579 42.6615C170.885 36.3528 166.394 30.546 161.216 25.3843C171.934 28.8734 182.04 34.0188 191.167 40.6337ZM94.784 25.4452C77.1418 42.7021 64.63 73.363 61.5071 110.31C57.6745 110.614 53.9838 110.919 50.496 111.263C42.2788 111.973 34.112 113.178 26.0402 114.873C24.1328 115.302 22.2507 115.837 20.4028 116.475C22.7513 95.7615 31.0144 76.1624 44.2046 60.0199C57.3947 43.8774 74.954 31.8743 94.784 25.4452ZM64.7517 216.366C70.3367 216.376 75.9014 215.695 81.3191 214.338C85.0275 220.643 89.525 226.449 94.7029 231.616C83.9846 228.127 73.8785 222.981 64.7517 216.366ZM161.216 231.535C178.858 214.278 191.37 183.515 194.473 146.649C198.326 146.365 202.016 146.041 205.504 145.716C213.721 145.005 221.888 143.8 229.96 142.107C231.867 141.678 233.749 141.143 235.597 140.505C233.249 161.218 224.986 180.817 211.795 196.96C198.605 213.102 181.046 225.105 161.216 231.535Z" fill="#113E2E"/>
</svg>
