<svg width="122" height="121" viewBox="0 0 122 121" fill="none" xmlns="http://www.w3.org/2000/svg">
<path d="M82.5642 64.0449L98.9417 51.5195C100.095 50.6372 101.03 49.5009 101.674 48.1988C102.317 46.8967 102.652 45.4638 102.652 44.0114V19.1426L93.0714 38.928C92.6842 39.727 92.0799 40.4008 91.3276 40.8723C90.5752 41.3438 89.7053 41.5938 88.8175 41.5938H82.5642V64.0449Z" fill="#FAFAFA"/>
<path d="M102.652 17.3706C103.122 17.3706 103.573 17.5573 103.905 17.8897C104.238 18.2221 104.425 18.6729 104.425 19.143V44.0118C104.421 45.7375 104.021 47.4394 103.257 48.9867C102.493 50.534 101.385 51.8857 100.017 52.938L83.6419 65.4633C83.3784 65.664 83.0639 65.7869 82.7342 65.8182C82.4045 65.8495 82.0725 65.7879 81.776 65.6404C81.4795 65.4928 81.2301 65.2653 81.0562 64.9834C80.8822 64.7015 80.7906 64.3766 80.7917 64.0454V41.5942C80.7917 41.1241 80.9785 40.6733 81.3109 40.3409C81.6433 40.0085 82.0941 39.8217 82.5642 39.8217H88.8175C89.3719 39.8198 89.9148 39.6628 90.3847 39.3683C90.8546 39.0739 91.2326 38.6538 91.4761 38.1556L101.057 18.3702C101.202 18.0704 101.428 17.8176 101.711 17.6408C101.993 17.4639 102.319 17.3703 102.652 17.3706ZM84.3367 60.4579L97.8641 50.102C98.7977 49.3839 99.5548 48.4619 100.077 47.4063C100.6 46.3508 100.875 45.1897 100.88 44.0118V26.871L94.6666 39.7036C94.1315 40.8002 93.3 41.7251 92.2662 42.3734C91.2324 43.0216 90.0377 43.3674 88.8175 43.3714H84.3272L84.3367 60.4579Z" fill="#19338F"/>
<path d="M40.0251 64.0449L23.6476 51.5195C22.4939 50.6372 21.5591 49.5009 20.9156 48.1988C20.2721 46.8967 19.9374 45.4638 19.9373 44.0114L19.9373 19.1426L29.518 38.928C29.9051 39.727 30.5094 40.4008 31.2618 40.8723C32.0141 41.3438 32.884 41.5938 33.7719 41.5938H40.0251V64.0449Z" fill="#FAFAFA"/>
<path d="M19.9372 17.3706C20.2702 17.3703 20.5966 17.4639 20.8788 17.6408C21.1609 17.8176 21.3875 18.0704 21.5324 18.3702L31.1132 38.1556C31.3567 38.6538 31.7348 39.0739 32.2046 39.3683C32.6745 39.6628 33.2174 39.8198 33.7719 39.8217H40.0251C40.4952 39.8217 40.9461 40.0085 41.2785 40.3409C41.6109 40.6733 41.7976 41.1241 41.7976 41.5942V64.0454C41.7987 64.3766 41.7071 64.7015 41.5332 64.9834C41.3592 65.2653 41.1099 65.4928 40.8133 65.6404C40.5168 65.7879 40.1849 65.8495 39.8551 65.8182C39.5254 65.7869 39.211 65.664 38.9475 65.4633L22.5723 52.9379C21.2055 51.8864 20.0976 50.5359 19.3336 48.9899C18.5696 47.4439 18.1698 45.7434 18.1648 44.0189L18.1648 19.143C18.1648 18.6729 18.3515 18.2221 18.6839 17.8897C19.0163 17.5573 19.4671 17.3706 19.9372 17.3706ZM38.2527 43.3667H33.7624C32.5443 43.3613 31.352 43.0155 30.32 42.3682C29.2881 41.7209 28.4578 40.7979 27.9228 39.7036L21.7097 26.871L21.7097 44.0118C21.7148 45.1897 21.9892 46.3508 22.5119 47.4063C23.0345 48.4619 23.7916 49.3839 24.7252 50.102L38.2527 60.4579V43.3667Z" fill="#19338F"/>
<path d="M40.0251 24.6953H82.5642V92.6396C82.5642 95.4114 81.9546 98.1493 80.7789 100.659C79.6031 103.169 77.8898 105.39 75.7603 107.164L61.2947 119.227L46.829 107.174C44.6983 105.399 42.9843 103.176 41.8085 100.664C40.6327 98.1527 40.0238 95.413 40.0251 92.6396L40.0251 24.6953Z" fill="#19338F"/>
<path d="M40.0251 22.9242H82.5642C83.0343 22.9242 83.4851 23.1109 83.8175 23.4433C84.1499 23.7757 84.3367 24.2266 84.3367 24.6966L84.3367 92.641C84.3408 95.6745 83.6759 98.6716 82.3891 101.419C81.1023 104.166 79.2255 106.595 76.8923 108.534L62.4243 120.587C62.106 120.852 61.7046 120.998 61.2899 120.998C60.8753 120.998 60.4738 120.852 60.1556 120.587L45.6875 108.534C43.3561 106.594 41.481 104.165 40.1959 101.417C38.9108 98.6704 38.2473 95.6738 38.2527 92.641L38.2527 24.6966C38.2527 24.2266 38.4394 23.7757 38.7718 23.4433C39.1042 23.1109 39.555 22.9242 40.0251 22.9242ZM80.7917 26.4691H41.7976L41.7976 92.641C41.7946 95.1534 42.3456 97.6356 43.4113 99.9109C44.477 102.186 46.0313 104.198 47.9634 105.804L61.2947 116.921L74.6259 105.814C76.5592 104.207 78.1142 102.193 79.18 99.9161C80.2458 97.6391 80.7961 95.155 80.7917 92.641V26.4691Z" fill="#19338F"/>
<path d="M45.9333 15.2422L76.656 15.2422L71.9294 24.6953H50.6599L45.9333 15.2422Z" fill="#19338F"/>
<path d="M45.9334 13.4707L76.6561 13.4707C76.9581 13.4707 77.2551 13.5479 77.5189 13.695C77.7827 13.842 78.0046 14.054 78.1635 14.3109C78.3223 14.5678 78.4129 14.861 78.4266 15.1627C78.4404 15.4644 78.3767 15.7646 78.2418 16.0349L73.5153 25.488C73.3679 25.7825 73.1416 26.0302 72.8615 26.2034C72.5815 26.3766 72.2588 26.4685 71.9295 26.4688H50.66C50.3307 26.4685 50.008 26.3766 49.7279 26.2034C49.4479 26.0302 49.2215 25.7825 49.0742 25.488L44.3477 16.0349C44.2127 15.7646 44.1491 15.4644 44.1628 15.1627C44.1766 14.861 44.2671 14.5678 44.426 14.3109C44.5849 14.054 44.8067 13.842 45.0705 13.695C45.3344 13.5479 45.6314 13.4707 45.9334 13.4707V13.4707ZM73.787 17.0156H48.8024L51.7565 22.9238H70.8329L73.787 17.0156Z" fill="#19338F"/>
<path d="M38.8435 24.6953L83.7458 24.6953C84.9994 24.6953 86.2016 25.1933 87.088 26.0797C87.9744 26.9661 88.4724 28.1683 88.4724 29.4219C88.4724 30.6754 87.9744 31.8777 87.088 32.7641C86.2016 33.6505 84.9994 34.1484 83.7458 34.1484H38.8435C37.5899 34.1484 36.3877 33.6505 35.5013 32.7641C34.6149 31.8777 34.1169 30.6754 34.1169 29.4219C34.1169 28.1683 34.6149 26.9661 35.5013 26.0797C36.3877 25.1933 37.5899 24.6953 38.8435 24.6953Z" fill="#FAFAFA"/>
<path d="M38.8435 22.9238L83.7458 22.9238C85.4695 22.9238 87.1225 23.6085 88.3414 24.8273C89.5602 26.0462 90.2449 27.6992 90.2449 29.4229C90.2449 31.1465 89.5602 32.7996 88.3414 34.0184C87.1225 35.2372 85.4695 35.9219 83.7458 35.9219H38.8435C37.1199 35.9219 35.4668 35.2372 34.248 34.0184C33.0292 32.7996 32.3445 31.1465 32.3445 29.4229C32.3445 27.6992 33.0292 26.0462 34.248 24.8273C35.4668 23.6085 37.1199 22.9238 38.8435 22.9238V22.9238ZM83.7458 32.377C84.5293 32.377 85.2807 32.0657 85.8347 31.5117C86.3887 30.9577 86.7 30.2063 86.7 29.4229C86.7 28.6394 86.3887 27.888 85.8347 27.334C85.2807 26.78 84.5293 26.4688 83.7458 26.4688L38.8435 26.4687C38.06 26.4687 37.3086 26.78 36.7546 27.334C36.2006 27.888 35.8894 28.6394 35.8894 29.4229C35.8894 30.2063 36.2006 30.9577 36.7546 31.5117C37.3086 32.0657 38.06 32.377 38.8435 32.377H83.7458ZM70.7478 0C71.2179 0 71.6687 0.186738 72.0011 0.519139C72.3335 0.85154 72.5203 1.30238 72.5203 1.77246V8.8623C72.5203 9.33239 72.3335 9.78323 72.0011 10.1156C71.6687 10.448 71.2179 10.6348 70.7478 10.6348C70.2777 10.6348 69.8269 10.448 69.4945 10.1156C69.1621 9.78323 68.9753 9.33239 68.9753 8.8623V1.77246C68.9753 1.30238 69.1621 0.85154 69.4945 0.519139C69.8269 0.186738 70.2777 0 70.7478 0ZM61.2947 0C61.7648 0 62.2156 0.186738 62.548 0.519139C62.8804 0.85154 63.0671 1.30238 63.0671 1.77246V8.8623C63.0671 9.33239 62.8804 9.78323 62.548 10.1156C62.2156 10.448 61.7648 10.6348 61.2947 10.6348C60.8246 10.6348 60.3738 10.448 60.0414 10.1156C59.709 9.78323 59.5222 9.33239 59.5222 8.8623V1.77246C59.5222 1.30238 59.709 0.85154 60.0414 0.519139C60.3738 0.186738 60.8246 0 61.2947 0ZM51.8416 0C52.3116 0 52.7625 0.186738 53.0949 0.519139C53.4273 0.85154 53.614 1.30238 53.614 1.77246V8.8623C53.614 9.33239 53.4273 9.78323 53.0949 10.1156C52.7625 10.448 52.3116 10.6348 51.8416 10.6348C51.3715 10.6348 50.9206 10.448 50.5882 10.1156C50.2558 9.78323 50.0691 9.33239 50.0691 8.8623V1.77246C50.0691 1.30238 50.2558 0.85154 50.5882 0.519139C50.9206 0.186738 51.3715 0 51.8416 0Z" fill="#19338F"/>
<path d="M61.2947 46.3203C53.4635 46.3203 47.115 52.6688 47.115 60.5C47.115 68.3312 53.4635 74.6797 61.2947 74.6797C69.1259 74.6797 75.4744 68.3312 75.4744 60.5C75.4744 52.6688 69.1259 46.3203 61.2947 46.3203Z" fill="#FAFAFA"/>
<path d="M61.2947 44.5488C64.4497 44.5488 67.5339 45.4844 70.1572 47.2372C72.7805 48.9901 74.8252 51.4815 76.0325 54.3963C77.2399 57.3112 77.5558 60.5187 76.9403 63.6131C76.3248 66.7075 74.8055 69.5499 72.5745 71.7808C70.3436 74.0118 67.5012 75.5311 64.4068 76.1466C61.3124 76.7621 58.1049 76.4462 55.19 75.2388C52.2752 74.0315 49.7838 71.9868 48.0309 69.3635C46.2781 66.7402 45.3425 63.656 45.3425 60.501C45.3475 56.2717 47.0298 52.2172 50.0203 49.2266C53.0108 46.2361 57.0654 44.5538 61.2947 44.5488ZM61.2947 72.9082C63.7486 72.9082 66.1474 72.1805 68.1878 70.8172C70.2281 69.4539 71.8184 67.5161 72.7575 65.249C73.6965 62.9819 73.9422 60.4872 73.4635 58.0804C72.9848 55.6737 71.8031 53.4629 70.0679 51.7277C68.3327 49.9926 66.122 48.8109 63.7152 48.3321C61.3084 47.8534 58.8138 48.0991 56.5466 49.0382C54.2795 49.9773 52.3418 51.5675 50.9784 53.6079C49.6151 55.6482 48.8874 58.0471 48.8874 60.501C48.8912 63.7904 50.1996 66.9441 52.5256 69.2701C54.8516 71.5961 58.0052 72.9044 61.2947 72.9082V72.9082Z" fill="#19338F"/>
<path d="M61.2947 51.6387C63.0475 51.6387 64.7609 52.1584 66.2183 53.1322C67.6757 54.106 68.8116 55.4901 69.4824 57.1095C70.1531 58.7289 70.3286 60.5108 69.9867 62.2299C69.6447 63.949 68.8007 65.5282 67.5613 66.7676C66.3219 68.007 64.7427 68.851 63.0236 69.193C61.3045 69.5349 59.5226 69.3594 57.9032 68.6887C56.2838 68.0179 54.8997 66.882 53.9259 65.4246C52.9521 63.9672 52.4324 62.2538 52.4324 60.501C52.4349 58.1513 53.3694 55.8986 55.0308 54.2371C56.6923 52.5757 58.945 51.6412 61.2947 51.6387ZM61.2947 65.8184C62.3464 65.8184 63.3744 65.5065 64.2489 64.9222C65.1233 64.3379 65.8048 63.5075 66.2073 62.5358C66.6098 61.5642 66.7151 60.4951 66.5099 59.4636C66.3047 58.4321 65.7983 57.4847 65.0546 56.741C64.311 55.9974 63.3635 55.4909 62.332 55.2858C61.3006 55.0806 60.2314 55.1859 59.2598 55.5884C58.2882 55.9908 57.4577 56.6724 56.8734 57.5468C56.2891 58.4212 55.9773 59.4493 55.9773 60.501C55.9785 61.9108 56.5392 63.2626 57.5361 64.2595C58.533 65.2565 59.8848 65.8171 61.2947 65.8184Z" fill="#19338F"/>
<path d="M61.2949 101.856C53.9333 101.867 46.7034 99.9035 40.3586 96.1704C41.1738 100.477 43.4613 104.366 46.8293 107.171L61.2949 119.227L75.7605 107.174C79.1284 104.369 81.416 100.479 82.2312 96.1728C75.8861 99.9051 68.6563 101.868 61.2949 101.856V101.856Z" fill="#FAFAFA"/>
<path d="M82.2312 94.3993C82.4919 94.3988 82.7495 94.456 82.9856 94.5667C83.2217 94.6774 83.4304 94.8389 83.5968 95.0396C83.7632 95.2404 83.8832 95.4754 83.9482 95.7279C84.0132 95.9803 84.0217 96.2441 83.973 96.5002C83.076 101.21 80.5737 105.463 76.8926 108.534L62.4246 120.587C62.1063 120.852 61.7048 120.998 61.2902 120.998C60.8756 120.998 60.4741 120.852 60.1558 120.587L45.6878 108.534C42.0066 105.463 39.5043 101.21 38.6074 96.5002C38.5441 96.1657 38.5785 95.82 38.7064 95.5045C38.8344 95.189 39.0505 94.9171 39.329 94.7211C39.6074 94.5252 39.9364 94.4136 40.2765 94.3997C40.6167 94.3858 40.9537 94.4701 41.2472 94.6427C47.3238 98.2066 54.2409 100.085 61.2854 100.085C68.33 100.085 75.2471 98.2066 81.3237 94.6427C81.5989 94.4815 81.9123 94.3974 82.2312 94.3993ZM61.2949 116.921L74.6262 105.814C76.6094 104.156 78.1921 102.07 79.2558 99.7143C73.6172 102.295 67.4889 103.63 61.2878 103.63C55.0868 103.63 48.9585 102.295 43.3198 99.7143C44.3859 102.07 45.971 104.155 47.9565 105.812L61.2949 116.921Z" fill="#19338F"/>
</svg>
