<svg width="82" height="102" viewBox="0 0 82 102" fill="none" xmlns="http://www.w3.org/2000/svg">
<path d="M66.8659 64.0558C74.4845 63.9436 80.599 57.5746 80.4855 49.8694C80.372 42.1643 74.0726 35.9781 66.454 36.0904C60.1697 36.1829 54.9343 40.5242 53.3376 46.3572L-11.3619 47.3101C-13.4889 47.3415 -15.2032 49.1272 -15.1716 51.2783C-15.1399 53.4295 -13.3737 55.164 -11.2467 55.1326L53.4528 54.1797C55.2206 59.9631 60.5816 64.1483 66.8659 64.0558V64.0558ZM60.569 50.1628C60.5189 46.76 63.2047 43.9624 66.5692 43.9128C69.9338 43.8633 72.7008 46.5806 72.7509 49.9834C72.8011 53.3861 70.1152 56.1837 66.7507 56.2333C63.3862 56.2828 60.6191 53.5656 60.569 50.1628Z" fill="url(#paint0_linear_25_19)"/>
<path d="M60.717 86.4838C60.6131 79.424 55.3255 73.6533 48.5826 72.8137L48.5252 68.922C48.4818 65.9691 47.113 63.642 44.696 62.367C42.6885 61.3207 40.3468 61.2183 38.7418 61.242L-14.2398 62.0223C-16.3668 62.0536 -18.0812 63.8393 -18.0495 65.9905C-18.0178 68.1417 -16.2516 69.8761 -14.1246 69.8448L38.8571 69.0644C39.8819 69.0494 40.4631 69.119 40.793 69.1924L40.8656 74.1206C36.1803 76.4195 32.9837 81.298 33.0663 86.9107C33.1798 94.6158 39.4792 100.802 47.0978 100.69C54.7163 100.578 60.8305 94.189 60.717 86.4838V86.4838ZM40.8006 86.7772C40.7505 83.3744 43.4363 80.5768 46.8008 80.5273C50.1653 80.4777 52.9324 83.195 52.9825 86.5978C53.0326 90.0006 50.3468 92.7981 46.9823 92.8477C43.6177 92.8972 40.8507 90.18 40.8006 86.7772Z" fill="url(#paint1_linear_25_19)"/>
<path d="M48.0097 29.9654L47.9852 28.3031C54.7004 27.2653 59.8158 21.3413 59.7118 14.2815C59.5983 6.57638 53.2989 0.390249 45.6804 0.502461C38.0618 0.614673 31.9473 6.98365 32.0608 14.6888C32.1432 20.2819 35.4825 25.0837 40.2334 27.2436L40.2751 30.0793C40.291 31.1549 39.4338 32.0477 38.3703 32.0634L-14.6114 32.8438C-16.7384 32.8751 -18.4527 34.6608 -18.421 36.812C-18.3894 38.9631 -16.6232 40.6976 -14.4962 40.6663L38.4855 39.8859C43.8224 39.8073 48.0892 35.3629 48.0097 29.9654ZM39.7953 14.5749C39.7452 11.1721 42.431 8.37452 45.7956 8.32496C49.1601 8.2754 51.9271 10.9927 51.9773 14.3955C52.0274 17.7983 49.3416 20.5958 45.977 20.6454C42.6125 20.695 39.8455 17.9777 39.7953 14.5749Z" fill="url(#paint2_linear_25_19)"/>
<defs>
<linearGradient id="paint0_linear_25_19" x1="31.9714" y1="4.03003" x2="33.3487" y2="97.5384" gradientUnits="userSpaceOnUse">
<stop stop-color="#FF884B"/>
<stop offset="0.35" stop-color="#FF634C"/>
<stop offset="0.655" stop-color="#FE4A4F"/>
<stop offset="1" stop-color="#FE4840"/>
</linearGradient>
<linearGradient id="paint1_linear_25_19" x1="20.2728" y1="4.20175" x2="21.65" y2="97.7101" gradientUnits="userSpaceOnUse">
<stop stop-color="#FF884B"/>
<stop offset="0.35" stop-color="#FF634C"/>
<stop offset="0.655" stop-color="#FE4A4F"/>
<stop offset="1" stop-color="#FE4840"/>
</linearGradient>
<linearGradient id="paint2_linear_25_19" x1="20.3333" y1="4.35756" x2="21.7106" y2="97.866" gradientUnits="userSpaceOnUse">
<stop stop-color="#FF884B"/>
<stop offset="0.35" stop-color="#FF634C"/>
<stop offset="0.655" stop-color="#FE4A4F"/>
<stop offset="1" stop-color="#FE4840"/>
</linearGradient>
</defs>
</svg>
